<?xml version="1.0" standalone="no"?>
<!DOCTYPE svg PUBLIC "-//W3C//DTD SVG 20010904//EN"
 "http://www.w3.org/TR/2001/REC-SVG-20010904/DTD/svg10.dtd">
<svg version="1.0" xmlns="http://www.w3.org/2000/svg"
 width="240.000000pt" height="240.000000pt" viewBox="0 0 240.000000 240.000000"
 preserveAspectRatio="xMidYMid meet">

<g transform="translate(0.000000,240.000000) scale(0.100000,-0.100000)"
fill="#000000" stroke="none">
<path d="M822 2083 c-130 -193 -101 -183 -507 -183 l-315 0 0 -850 0 -850
1200 0 1200 0 0 850 0 850 -215 0 c-291 0 -281 -5 -407 183 l-78 117 -400 0
-400 0 -78 -117z m822 -159 c78 -120 167 -188 278 -214 24 -5 96 -10 161 -10
l117 0 0 -650 0 -650 -1000 0 -1000 0 0 650 0 650 218 0 c119 0 236 5 260 10
111 26 200 94 278 214 l49 76 295 0 295 0 49 -76z"/>
<path d="M1220 1594 c-53 -10 -147 -48 -195 -79 -90 -59 -151 -137 -195 -250
-31 -80 -34 -233 -6 -315 51 -152 156 -260 311 -320 49 -19 79 -24 165 -24 86
0 116 5 165 24 155 60 260 168 311 320 25 75 25 225 0 300 -68 202 -242 335
-451 345 -44 2 -91 2 -105 -1z m219 -229 c59 -32 100 -75 133 -138 19 -34 23
-58 23 -127 0 -69 -4 -93 -23 -127 -33 -63 -74 -106 -134 -139 -47 -26 -62
-29 -138 -29 -93 0 -137 16 -203 74 -76 67 -115 198 -88 298 24 90 116 185
205 213 17 5 63 8 102 6 55 -2 82 -9 123 -31z"/>
<path d="M434 1466 c-46 -46 -46 -86 0 -132 24 -24 43 -34 66 -34 44 0 100 56
100 100 0 44 -56 100 -100 100 -23 0 -41 -9 -66 -34z"/>
<path d="M200 2050 l0 -50 150 0 150 0 0 50 0 50 -150 0 -150 0 0 -50z"/>
</g>
</svg>
