<?xml version="1.0" standalone="no"?>
<!DOCTYPE svg PUBLIC "-//W3C//DTD SVG 20010904//EN"
 "http://www.w3.org/TR/2001/REC-SVG-20010904/DTD/svg10.dtd">
<svg version="1.0" xmlns="http://www.w3.org/2000/svg"
 width="240.000000pt" height="240.000000pt" viewBox="0 0 240.000000 240.000000"
 preserveAspectRatio="xMidYMid meet">

<g transform="translate(0.000000,240.000000) scale(0.100000,-0.100000)"
fill="#000000" stroke="none">
<path d="M0 1200 l0 -1000 1200 0 1200 0 0 1000 0 1000 -1200 0 -1200 0 0
-1000z m2200 0 l0 -800 -1000 0 -1000 0 0 800 0 800 1000 0 1000 0 0 -800z"/>
<path d="M509 1772 c-43 -23 -59 -38 -82 -82 -36 -68 -33 -125 7 -195 36 -60
114 -100 181 -92 71 7 133 50 161 110 31 68 30 113 -4 178 -22 43 -38 59 -81
81 -31 16 -69 28 -91 28 -22 0 -60 -12 -91 -28z"/>
<path d="M1283 1313 c-62 -98 -118 -186 -125 -195 -12 -16 -24 -8 -132 77 -66
52 -122 95 -125 95 -3 0 -45 -55 -93 -123 -48 -67 -159 -222 -247 -344 l-160
-223 799 0 800 0 -297 445 c-163 245 -299 445 -302 445 -4 0 -57 -80 -118
-177z"/>
</g>
</svg>
