<?xml version="1.0" standalone="no"?>
<!DOCTYPE svg PUBLIC "-//W3C//DTD SVG 20010904//EN"
 "http://www.w3.org/TR/2001/REC-SVG-20010904/DTD/svg10.dtd">
<svg version="1.0" xmlns="http://www.w3.org/2000/svg"
 width="240.000000pt" height="240.000000pt" viewBox="0 0 240.000000 240.000000"
 preserveAspectRatio="xMidYMid meet">

<g transform="translate(0.000000,240.000000) scale(0.100000,-0.100000)"
fill="#000000" stroke="none">
<path d="M214 2186 c-100 -32 -183 -121 -204 -219 -8 -36 -10 -275 -8 -792 3
-733 3 -740 24 -786 28 -60 87 -119 150 -150 l49 -24 975 0 975 0 49 24 c63
31 122 90 150 150 21 46 21 49 21 816 0 767 0 770 -21 816 -28 60 -87 119
-150 150 l-49 24 -960 2 c-762 1 -968 -1 -1001 -11z m1169 -760 c229 -132 416
-240 414 -242 -4 -4 -799 -434 -859 -465 l-38 -19 0 501 0 501 33 -19 c17 -11
220 -126 450 -257z"/>
</g>
</svg>
